<svg xmlns="http://www.w3.org/2000/svg" viewBox="0 0 512 512" width="512" height="512">
  <defs>
    <radialGradient id="bgGlow" cx="50%" cy="50%" r="50%">
      <stop offset="0%" stop-color="#1e293b"/>
      <stop offset="100%" stop-color="#0b0f17"/>
    </radialGradient>
    <linearGradient id="flameGrad" x1="0%" y1="100%" x2="0%" y2="0%">
      <stop offset="0%" stop-color="#dc2626"/>
      <stop offset="35%" stop-color="#ea580c"/>
      <stop offset="70%" stop-color="#f59e0b"/>
      <stop offset="100%" stop-color="#fef08a"/>
    </linearGradient>
    <filter id="glow" x="-20%" y="-20%" width="140%" height="140%">
      <feGaussianBlur stdDeviation="16" result="blur" />
      <feComposite in="SourceGraphic" in2="blur" operator="over" />
    </filter>
  </defs>

  <!-- Background rounded squircle with border -->
  <rect width="512" height="512" rx="128" fill="url(#bgGlow)"/>
  <rect width="504" height="504" x="4" y="4" rx="124" fill="none" stroke="#f59e0b" stroke-opacity="0.3" stroke-width="8"/>

  <!-- Flame Shape with glow -->
  <g transform="translate(106, 76) scale(0.6)" filter="url(#glow)">
    <path fill="url(#flameGrad)" d="M256 0C256 0 310 134 310 220C310 252 298 281 278 303C268 259 238 226 214 200C162 144 148 64 148 64C148 64 96 156 96 244C96 360 178 448 256 448C334 448 416 360 416 244C416 112 256 0 256 0Z"/>
    <path fill="#fef08a" opacity="0.9" d="M256 160C256 160 286 240 286 290C286 310 278 328 266 342C260 314 242 292 226 276C194 240 186 188 186 188C186 188 152 246 152 302C152 376 204 432 256 432C308 432 360 376 360 302C360 218 256 160 256 160Z"/>
  </g>
</svg>
